<?xml version="1.0" ?><!DOCTYPE svg  PUBLIC '-//W3C//DTD SVG 1.1//EN'  'http://www.w3.org/Graphics/SVG/1.1/DTD/svg11.dtd'><svg enable-background="new 0 0 60 56" height="50px" id="Layer_1" version="1.1" viewBox="0 -50 500 500" width="46px"  xml:space="preserve" xmlns="http://www.w3.org/2000/svg" xmlns:xlink="http://www.w3.org/1999/xlink"><path clip-rule="evenodd" d="M186.401,207.936L39.033,410.088  c-4.449,6.087-7.083,13.538-7.083,21.623c0,20.078,16.264,36.34,36.34,36.34h363.421c20.078,0,36.34-16.262,36.34-36.34  c0-8.085-2.632-15.536-7.079-21.623L313.599,207.936V77.375h4.543c12.537,0,22.711-10.177,22.711-22.713  c0-12.536-10.174-22.713-22.711-22.713H181.858c-12.536,0-22.713,10.177-22.713,22.713c0,12.537,10.177,22.713,22.713,22.713h4.543  V207.936z M231.83,77.375h36.342v136.282l63.6,90.855H168.231l63.599-90.855V77.375z" fill="#ffffff" fill-rule="evenodd"/></svg>