<?xml version="1.0" ?><svg height="50px" version="1.1" viewBox="0 0 24 20" width="46px" xmlns="http://www.w3.org/2000/svg" xmlns:sketch="http://www.bohemiancoding.com/sketch/ns" xmlns:xlink="http://www.w3.org/1999/xlink"><title/><desc/><defs/><g fill="none" fill-rule="evenodd" id="miu" stroke="none" stroke-width="1"><g id="Artboard-1" transform="translate(-395.000000, -119.000000)"><g id="slice" transform="translate(215.000000, 119.000000)"/><path d="M397.181376,129 C398.121889,123.879764 402.60786,120 408,120 C414.075133,120 419,124.924867 419,131 C419,137.075133 414.075133,142 408,142 C403.727268,142 400.023517,139.563904 398.201917,136.004883 L400.51882,136.004883 C402.133783,138.414115 404.88169,140 408,140 C412.970563,140 417,135.970563 417,131 C417,126.029437 412.970563,122 408,122 C403.716825,122 400.132475,124.992022 399.223016,129 L397.181376,129 L397.181376,129 Z M407.5,131.349626 L412.710685,134.421329 L413.218515,133.559872 L408.5,130.754395 L408.5,124.031738 L407.5,124.031738 L407.5,131.349626 Z M398,133 L401,129 L395,129 L398,133 Z" fill="#ffffff" id="circle-backup-time-history-recent-time-machine-glyph"/></g></g></svg>