<?xml version="1.0" ?><svg height="60px" id="Layer_1" version="1.1" viewBox="-50 -60 600 600" width="56px" xml:space="preserve" xmlns="http://www.w3.org/2000/svg" xmlns:cc="http://creativecommons.org/ns#" xmlns:dc="http://purl.org/dc/elements/1.1/" xmlns:inkscape="http://www.inkscape.org/namespaces/inkscape" xmlns:rdf="http://www.w3.org/1999/02/22-rdf-syntax-ns#" xmlns:sodipodi="http://sodipodi.sourceforge.net/DTD/sodipodi-0.dtd" xmlns:svg="http://www.w3.org/2000/svg"><defs id="defs12"/><g id="g5215"><rect height="512" id="rect2987" rx="64" ry="64" style="fill:#569;fill-opacity:1;fill-rule:nonzero;stroke:none" width="56" x="0" y="5.6843419e-014"/><g id="g7415" transform="matrix(1.5774332,0,0,1.5774332,-1540.6697,-969.64205)"><path d="m 1265.7712,845.09608 c 0,31.4928 -25.5294,57.02739 -57.0233,57.02739 h -66.5288 c 0,0 0,-28.7038 0,-60.1925 h 63.3606 v -3.17024 h -63.3606 v -66.5299 c 0,-31.49486 0,-57.02637 0,-57.02637 h 60.1925 l 0,63.36069 h 3.164 v -63.36069 h 60.1915 v 129.89162 z" id="path11-4" style="fill:#ffffff"/><path d="m 1082.0266,651.84583 h -6.3405 c -0.042,0 -0.084,0.006 -0.1264,0.006 v -0.006 h -63.3648 V 902.1245 h 63.3648 v -63.36993 c 0.042,0 0.084,0.007 0.1264,0.007 h 6.3405 c 31.4907,0 57.0243,-25.53357 57.0243,-57.02637 V 708.872 c 10e-4,-31.49691 -25.5336,-57.02636 -57.0243,-57.02636 z m -3.1682,126.71932 h -3.1723 v -66.52682 h 3.1723 v 66.52682 z" id="path13-4" style="fill:#ffffff"/></g></g></svg>